<svg xmlns="http://www.w3.org/2000/svg" width="512" height="512" viewBox="0 0 512 512">
  <rect width="512" height="512" fill="#10b981" rx="85"/>
  <g transform="translate(256, 256)">
    <!-- Leaf shape -->
    <path d="M -80,-110 Q -110,-50 -80,0 Q -50,50 0,80 Q 50,50 80,0 Q 110,-50 80,-110 Q 50,-140 0,-140 Q -50,-140 -80,-110 Z" 
          fill="#ffffff" opacity="0.95"/>
    <!-- Circuit lines -->
    <line x1="-40" y1="-55" x2="40" y2="-55" stroke="#10b981" stroke-width="6"/>
    <line x1="-30" y1="-30" x2="30" y2="-30" stroke="#10b981" stroke-width="6"/>
    <line x1="-20" y1="-5" x2="20" y2="-5" stroke="#10b981" stroke-width="6"/>
    <line x1="-10" y1="20" x2="10" y2="20" stroke="#10b981" stroke-width="6"/>
    <circle cx="-40" cy="-55" r="8" fill="#10b981"/>
    <circle cx="40" cy="-55" r="8" fill="#10b981"/>
    <circle cx="0" cy="20" r="8" fill="#10b981"/>
  </g>
  <text x="256" y="430" font-family="Arial, sans-serif" font-size="64" font-weight="bold" 
        text-anchor="middle" fill="#ffffff">AgriEye</text>
</svg>
